# xmcd
#
# Track frame offsets: 
#        150
#        8624
#        29262
#        46650
#        66641
#        85144
#        103708
#        125458
#        148364
#        167061
#        185811
#        203466
#        224157
#        259254
#
# Disc length: 4620 seconds
#
# Revision: 0
# Processed by: cddbd v1.5.2PL0 Copyright (c) Steve Scherf et al.
# Submitted via: ExactAudioCopy v1.0b3
#
DISCID=d1120a0e
DTITLE=Vertigo Steps - surface light
DYEAR=2012
DGENRE=Progressive Metal
TTITLE0=vertigo dawn
TTITLE1=the hollow
TTITLE2=silent bliss
TTITLE3=railroads of life
TTITLE4=tonight I died, tomorrow I'll live
TTITLE5=doppler defect
TTITLE6=disappear here
TTITLE7=helsinki
TTITLE8=someone (like you)
TTITLE9=zeppelin on fire
TTITLE10=schadenfreude
TTITLE11=nothing at all
TTITLE12=the porcupine dilemma
TTITLE13=someone (like you)
EXTD=
EXTT0=
EXTT1=
EXTT2=
EXTT3=
EXTT4=
EXTT5=
EXTT6=
EXTT7=
EXTT8=
EXTT9=
EXTT10=
EXTT11=
EXTT12=
EXTT13=
PLAYORDER=
